# xmcd CD database file
#
# Track frame offsets:
#	150
#	13211
#	24708
#	48122
#	63753
#	71708
#	83642
#	96883
#	114979
#	130738
#	143023
#	150958
#	168471
#
# Disc length: 2502 seconds
#
# Revision: 0
# Processed by: cddbd v1.5.1PL2 Copyright (c) Steve Scherf et al.
# Submitted via: CDex 1.51
#
DISCID=9d09c40d
DTITLE=Eli Charleston - Eli Charleston's Ragged Time
DYEAR=2005
DGENRE=Jazz
TTITLE0=Send Her a Rose
TTITLE1=Eli's Cake Walk
TTITLE2=Who Broke the Latch?
TTITLE3=Playin' the Fool Again
TTITLE4=Baby Bumblebee
TTITLE5=Nobody Knows You
TTITLE6=Chasing My Tale
TTITLE7=Once and Done
TTITLE8=Blues in the Night
TTITLE9=Kodachrome
TTITLE10=Viper Mad Rag
TTITLE11=The Sweat of Solid Ground
TTITLE12=Why Doncha Tell Me Watcha Wanna Say?
EXTD=YEAR: 2005
EXTT0=
EXTT1=
EXTT2=
EXTT3=
EXTT4=
EXTT5=
EXTT6=
EXTT7=
EXTT8=
EXTT9=
EXTT10=
EXTT11=
EXTT12=
PLAYORDER=
